<svg xmlns="http://www.w3.org/2000/svg" viewBox="0 0 75.8 76.3">
  <path d="M70.2 0H5.6C2.5 0 0 2.4 0 5.5v65.3c0 3.1 2.5 5.5 5.6 5.5h64.6c3.1 0 5.6-2.4 5.6-5.5V5.5c0-3.1-2.5-5.5-5.6-5.5zM23 63.8H11.6V29.4H23v34.4zm-5.7-39.1c-4 0-6.4-2.7-6.4-5.9 0-3.4 2.6-5.9 6.5-5.9 4 0 6.3 2.5 6.4 5.9 0 3.3-2.5 5.9-6.5 5.9zm46.9 39H52.8V45.3c0-4.5-1.6-7.7-5.8-7.7-3.1 0-5.1 2.2-5.9 4.2-.3.8-.4 1.8-.4 2.8v19.3H29.3s.1-31.3.1-34.5h11.4v4.8c1.5-2.3 4.2-5.6 10.3-5.6 7.5 0 13.1 4.9 13.1 15.5v19.6zM40.8 34.4v-.2c0 .1-.1.2 0 .2z"/>
</svg>
