<svg class="linkedin" xmlns="http://www.w3.org/2000/svg" viewBox="0 0 75.8 76.3" >
  <path class="b" d="M0,5.5C0,2.4,2.5,0,5.6,0h64.6c3.1,0,5.6,2.4,5.6,5.5v65.3c0,3.1-2.5,5.5-5.6,5.5H5.6 c-3.1,0-5.6-2.4-5.6-5.5V5.5z"/>
  <path class="i" d="M23,63.9V29.4H11.6v34.4H23z M17.3,24.7c4,0,6.5-2.6,6.5-5.9c-0.1-3.4-2.4-5.9-6.4-5.9 c-3.9,0-6.5,2.5-6.5,5.9C10.9,22,13.3,24.7,17.3,24.7z"/>
  <path class="n" d="M29.3,63.9h11.4V44.6c0-1,0.1-2,0.4-2.8c0.8-2,2.8-4.2,5.9-4.2c4.2,0,5.8,3.2,5.8,7.7v18.4h11.4V44.1 c0-10.6-5.6-15.5-13.1-15.5c-6.2,0-8.9,3.5-10.4,5.8h0.1v-5H29.4C29.4,32.6,29.3,63.9,29.3,63.9L29.3,63.9z"/>
</svg>
