<svg xmlns="http://www.w3.org/2000/svg" viewBox="0 0 40 40">
    <path d="M34.3 39.4H5.8V.6h28.5v38.8zm-26.5-2h24.5V2.6H7.8v34.8zM11.9 25.6h16.7v2H11.9zM11.9 30.8h16.7v2H11.9zM11.9 22v-1.5s.1-.9 1.2-1.2c0 0 1.8-.7 3.2-1.3.7-.3.9-.5 1.6-.8 0 0 .1-.4 0-.6h.6s.1.1 0-.8c0 0-.7-.2-.7-1.6 0 0-.5.2-.6-.7 0-.6-.5-1.1.2-1.5l-.3-.9s-.7-3.6 1.2-3c-.8-.9 4.5-1.9 4.8 1.1 0 0 .2 1.6 0 2.7 0 0 .8-.1.3 1.4 0 0-.3 1.1-.7.8 0 0 .1 1.4-.6 1.6v.8l.7.1s-.1.6 0 .7c0 0 .8.5 1.7.8 1.8.5 3.9 1.2 3.9 1.9 0 0 .2.9.2 2H11.9z"/>
</svg>
